<svg xmlns="http://www.w3.org/2000/svg" width="469" height="142" viewBox="0 0 469 142" fill="none"><g clip-path="url(#clip0_932_1155)"><path d="M140.819 54.6716C140.793 46.9439 140.498 39.2137 139.183 31.5687C138.284 26.3373 136.843 21.2861 134.037 16.7317C129.543 9.42531 122.918 5.12181 114.801 2.94692C107.728 1.05212 100.483 0.5285 93.215 0.336097C85.6394 0.133953 78.0591 0.0925482 70.4787 0C62.9008 0.104726 55.3205 0.138821 47.745 0.333659C40.7351 0.51632 33.7252 1.02534 26.8845 2.76914C14.5979 5.88168 6.53892 13.4292 3.07507 25.8015C1.1123 32.8132 0.520084 40.0149 0.341211 47.2337C-0.0769651 64.2333 -0.20266 81.2354 0.498328 98.2326C0.720711 103.635 1.30809 109.002 2.5457 114.28C5.68806 127.687 13.834 136.099 27.1625 139.365C33.9307 141.029 40.8269 141.611 47.7498 141.716C59.8358 141.896 71.9532 141.935 84.0538 141.92C92.63 141.92 101.216 141.699 109.695 140.24C114.772 139.365 119.657 137.943 124.097 135.237C131.74 130.576 136.101 123.569 138.238 114.996C139.959 108.099 140.544 101.05 140.638 93.9778C140.812 80.8798 140.873 67.7778 140.819 54.6716Z" fill="#FF6637"></path><path d="M76.0177 109.991H65.2153C64.4553 109.991 63.7028 109.84 63.0007 109.547C62.2987 109.254 61.6607 108.825 61.1234 108.284C60.586 107.742 60.1598 107.099 59.869 106.392C59.5782 105.685 59.4285 104.926 59.4285 104.161V101.752C59.4285 100.977 59.1229 100.234 58.5789 99.6854C58.0349 99.1373 57.2971 98.8295 56.5278 98.8295H31.7394C30.2714 98.8295 28.8634 98.2418 27.8253 97.1959C26.7872 96.15 26.204 94.7314 26.204 93.2522C26.204 91.773 26.7872 90.3544 27.8253 89.3085C28.8634 88.2626 30.2714 87.6749 31.7394 87.6749H53.6441C54.4039 87.6749 55.1563 87.5241 55.8582 87.2311C56.5602 86.938 57.198 86.5085 57.7351 85.9671C58.2723 85.4256 58.6983 84.7829 58.9889 84.0755C59.2794 83.3681 59.4288 82.61 59.4285 81.8444V60.0469C59.4285 58.5012 58.8191 57.0188 57.7343 55.9258C56.6495 54.8328 55.1782 54.2188 53.6441 54.2188H31.6234C30.1553 54.2188 28.7474 53.6312 27.7093 52.5852C26.6712 51.5393 26.088 50.1207 26.088 48.6415C26.088 47.1623 26.6712 45.7437 27.7093 44.6978C28.7474 43.6519 30.1553 43.0643 31.6234 43.0643H56.5375C57.3068 43.0643 58.0446 42.7564 58.5886 42.2083C59.1325 41.6602 59.4381 40.9168 59.4381 40.1417V37.7671C59.4388 36.2212 60.0487 34.7388 61.1339 33.6459C62.2191 32.553 63.6906 31.939 65.2249 31.939H76.0274C85.331 31.9254 94.3263 35.2985 101.357 41.4374C102.772 42.6782 104.097 44.0195 105.321 45.451C110.174 51.1079 113.311 58.0501 114.36 65.4517C115.408 72.8533 114.325 80.4027 111.238 87.2017C108.151 94.0007 103.19 99.763 96.9465 103.803C90.7026 107.843 83.4383 109.991 76.0177 109.991Z" fill="white"></path><path d="M331.276 113.116H278.146V103.374L316.997 68.5152C317.996 67.6376 318.884 66.6397 319.642 65.5439C323.106 60.4294 323.461 53.6978 320.572 47.9866C317.913 42.7503 313.195 39.6499 307.597 39.4794C296.478 39.1433 287.314 48.6198 287.314 60.3198H278.146C278.146 43.7318 291.099 30.2344 307.019 30.2344C307.307 30.2344 307.592 30.2344 307.875 30.2344C316.787 30.5047 324.59 35.5705 328.74 43.7805C333.149 52.4995 332.567 62.8284 327.217 70.734C326.036 72.4534 324.651 74.0212 323.094 75.4028L291.36 103.874H331.276V113.116Z" fill="white"></path><path d="M394.53 113.116H341.4V103.374L380.252 68.5152C381.25 67.6369 382.138 66.6391 382.896 65.5439C386.358 60.4294 386.716 53.6978 383.827 47.9866C381.168 42.7503 376.45 39.6499 370.851 39.4794C359.715 39.1433 350.566 48.6198 350.566 60.3198H341.4C341.4 43.7318 354.352 30.2344 370.274 30.2344C370.559 30.2344 370.844 30.2344 371.129 30.2344C380.042 30.5047 387.842 35.5705 391.995 43.7805C396.404 52.4995 395.819 62.8284 390.472 70.734C389.291 72.4539 387.907 74.0218 386.348 75.4028L354.615 103.874H394.53V113.116Z" fill="white"></path><path d="M431.419 115.87C415.5 115.87 402.546 102.375 402.546 85.7842V60.314C402.546 43.7259 415.5 30.2285 431.419 30.2285C447.339 30.2285 460.293 43.7259 460.293 60.314V85.7842C460.293 102.38 447.341 115.87 431.419 115.87ZM431.419 39.4638C420.542 39.4638 411.714 48.8185 411.714 60.314V85.7842C411.714 97.2797 420.554 106.634 431.419 106.634C442.285 106.634 451.124 97.2797 451.124 85.7842V60.314C451.124 48.8185 442.285 39.4638 431.419 39.4638Z" fill="white"></path><path d="M182.935 54.5466C175.219 54.5432 167.791 57.5048 162.166 62.8277V30.4834H152.503V85.2223C152.505 91.2864 154.292 97.2135 157.638 102.254C160.983 107.295 165.737 111.223 171.298 113.542C176.859 115.861 182.978 116.466 188.88 115.282C194.783 114.097 200.204 111.176 204.459 106.887C208.714 102.598 211.611 97.1345 212.784 91.1868C213.958 85.2392 213.354 79.0745 211.05 73.4723C208.747 67.8702 204.846 63.082 199.842 59.7133C194.837 56.3446 188.954 54.5466 182.935 54.5466ZM182.935 106.143C178.827 106.144 174.81 104.917 171.394 102.617C167.977 100.317 165.315 97.0484 163.742 93.2238C162.17 89.3991 161.759 85.1905 162.56 81.1304C163.362 77.0702 165.341 73.3408 168.247 70.4139C171.152 67.487 174.854 65.4941 178.884 64.6872C182.914 63.8803 187.091 64.2957 190.887 65.8809C194.682 67.466 197.926 70.1497 200.207 73.5925C202.489 77.0353 203.706 81.0826 203.705 85.2223C203.695 90.7682 201.504 96.0841 197.61 100.004C193.717 103.925 188.44 106.13 182.935 106.136V106.143Z" fill="white"></path><path d="M244.789 115.87C239.078 115.87 233.495 114.163 228.746 110.966C223.998 107.768 220.297 103.224 218.112 97.9074C215.927 92.5907 215.356 86.7406 216.472 81.0969C217.587 75.4533 220.338 70.2697 224.378 66.2017C228.417 62.1337 233.563 59.3641 239.165 58.2433C244.767 57.1224 250.573 57.7006 255.849 59.9047C261.124 62.1089 265.633 65.8399 268.804 70.6259C271.975 75.412 273.665 81.038 273.663 86.7925V91.4199H225.621C226.436 94.8538 228.146 98.0065 230.573 100.553C233 103.1 236.058 104.948 239.43 105.908C242.803 106.868 246.368 106.904 249.759 106.013C253.15 105.123 256.244 103.337 258.722 100.84L265.205 107.372C262.528 110.078 259.346 112.222 255.841 113.68C252.337 115.139 248.581 115.883 244.789 115.87ZM244.789 66.9165C240.359 66.9232 236.061 68.4306 232.584 71.1963C229.107 73.962 226.655 77.8253 225.621 82.1651H263.955C262.92 77.8268 260.467 73.9652 256.991 71.2009C253.515 68.4367 249.217 66.9302 244.789 66.9238V66.9165Z" fill="white"></path></g><defs><clipPath id="clip0_932_1155"><rect width="468.324" height="141.903" fill="white"></rect></clipPath></defs></svg>